<svg width="128" height="128" viewBox="0 0 128 128" fill="none" xmlns="http://www.w3.org/2000/svg">
<circle cx="64" cy="64" r="64" fill="#6C7AF9"/>
<path d="M41.0566 26.2957C41.0566 22.8881 43.819 20.1258 47.2265 20.1258H75.7788C79.1863 20.1258 81.9487 22.8882 81.9487 26.2957V100.335C81.9487 103.742 79.1863 106.505 75.7788 106.505H47.2265C43.819 106.505 41.0566 103.742 41.0566 100.335V63.3152V26.2957Z" fill="#ACB4FC" fill-opacity="0.6" stroke="#545D6D" stroke-width="2.41509"/>
<path d="M55.7593 20.1257H67.2459C67.2459 21.3945 66.2173 22.423 64.9486 22.423H58.0566C56.7879 22.423 55.7593 21.3945 55.7593 20.1257Z" fill="#545D6D"/>
<rect x="64" y="65" width="9.69656" height="35.7561" rx="3.22013" fill="#5FF065"/>
<rect x="76.5273" y="54.5703" width="9.69656" height="46.0587" rx="3.22013" fill="#5FF065"/>
<rect x="89.652" y="46.6918" width="9.69656" height="53.9371" rx="3.22013" fill="#5FF065"/>
<path fill-rule="evenodd" clip-rule="evenodd" d="M37.8365 110.289C44.061 110.289 49.1069 108.487 49.1069 106.264L49.1069 103.849H46.8537C44.7975 102.871 41.5238 102.239 37.8365 102.239C34.1492 102.239 30.8755 102.871 28.8193 103.849H26.566V106.264C26.566 108.487 31.612 110.289 37.8365 110.289Z" fill="#EDC63D"/>
<path d="M48.7044 103.849C48.7044 104.24 48.4835 104.668 47.9615 105.108C47.4415 105.547 46.6651 105.961 45.6705 106.316C43.6848 107.025 40.9151 107.472 37.8365 107.472C34.7579 107.472 31.9882 107.025 30.0025 106.316C29.0078 105.961 28.2315 105.547 27.7114 105.108C27.1895 104.668 26.9686 104.24 26.9686 103.849C26.9686 103.458 27.1895 103.031 27.7114 102.59C28.2315 102.151 29.0078 101.737 30.0025 101.382C31.9882 100.673 34.7579 100.226 37.8365 100.226C40.9151 100.226 43.6848 100.673 45.6705 101.382C46.6651 101.737 47.4415 102.151 47.9615 102.59C48.4835 103.031 48.7044 103.458 48.7044 103.849Z" fill="#FDE284" stroke="#EDC63D" stroke-width="0.805031"/>
<path fill-rule="evenodd" clip-rule="evenodd" d="M47.8994 105.459C47.6771 105.459 47.4968 105.639 47.4968 105.862V106.667C47.4968 106.889 47.6771 107.069 47.8994 107.069C48.1217 107.069 48.3019 106.889 48.3019 106.667V105.862C48.3019 105.639 48.1217 105.459 47.8994 105.459ZM28.1761 106.667C28.1761 106.444 28.3563 106.264 28.5786 106.264C28.8009 106.264 28.9811 106.444 28.9811 106.667V107.472C28.9811 107.694 28.8009 107.874 28.5786 107.874C28.3563 107.874 28.1761 107.694 28.1761 107.472V106.667ZM30.5912 107.472C30.5912 107.249 30.7714 107.069 30.9937 107.069C31.216 107.069 31.3962 107.249 31.3962 107.472V108.277C31.3962 108.499 31.216 108.679 30.9937 108.679C30.7714 108.679 30.5912 108.499 30.5912 108.277V107.472ZM33.4088 107.633C33.1865 107.633 33.0063 107.813 33.0063 108.035V108.84C33.0063 109.063 33.1865 109.243 33.4088 109.243C33.6311 109.243 33.8113 109.063 33.8113 108.84V108.035C33.8113 107.813 33.6311 107.633 33.4088 107.633ZM35.4214 108.277C35.4214 108.054 35.6016 107.874 35.8239 107.874C36.0462 107.874 36.2264 108.054 36.2264 108.277V109.082C36.2264 109.304 36.0462 109.484 35.8239 109.484C35.6016 109.484 35.4214 109.304 35.4214 109.082V108.277ZM38.239 107.874C38.0167 107.874 37.8365 108.054 37.8365 108.277V109.082C37.8365 109.304 38.0167 109.484 38.239 109.484C38.4613 109.484 38.6415 109.304 38.6415 109.082V108.277C38.6415 108.054 38.4613 107.874 38.239 107.874ZM40.2516 108.277C40.2516 108.054 40.4318 107.874 40.6541 107.874C40.8764 107.874 41.0566 108.054 41.0566 108.277V109.082C41.0566 109.304 40.8764 109.484 40.6541 109.484C40.4318 109.484 40.2516 109.304 40.2516 109.082V108.277ZM43.0692 107.472C42.8469 107.472 42.6667 107.652 42.6667 107.874V108.679C42.6667 108.902 42.8469 109.082 43.0692 109.082C43.2915 109.082 43.4717 108.902 43.4717 108.679V107.874C43.4717 107.652 43.2915 107.472 43.0692 107.472ZM45.0817 107.23C45.0817 107.008 45.262 106.828 45.4843 106.828C45.7066 106.828 45.8868 107.008 45.8868 107.23V108.035C45.8868 108.258 45.7066 108.438 45.4843 108.438C45.262 108.438 45.0817 108.258 45.0817 108.035V107.23Z" fill="#DAB638"/>
<path fill-rule="evenodd" clip-rule="evenodd" d="M35.4214 106.264C41.6459 106.264 46.6918 104.462 46.6918 102.239L46.6918 99.8239H44.4386C42.3824 98.8462 39.1087 98.2138 35.4214 98.2138C31.7341 98.2138 28.4604 98.8462 26.4042 99.8239H24.1509V102.239C24.1509 104.462 29.1969 106.264 35.4214 106.264Z" fill="#EDC63D"/>
<path d="M46.2893 99.8239C46.2893 100.215 46.0684 100.642 45.5464 101.083C45.0264 101.522 44.25 101.936 43.2554 102.291C41.2697 103 38.5 103.447 35.4214 103.447C32.3428 103.447 29.5731 103 27.5874 102.291C26.5927 101.936 25.8164 101.522 25.2963 101.083C24.7744 100.642 24.5535 100.215 24.5535 99.8239C24.5535 99.4326 24.7744 99.0054 25.2963 98.5647C25.8164 98.1256 26.5927 97.712 27.5874 97.3568C29.5731 96.6476 32.3428 96.2013 35.4214 96.2013C38.5 96.2013 41.2697 96.6476 43.2554 97.3568C44.25 97.712 45.0264 98.1256 45.5464 98.5647C46.0684 99.0054 46.2893 99.4326 46.2893 99.8239Z" fill="#FDE284" stroke="#EDC63D" stroke-width="0.805031"/>
<path fill-rule="evenodd" clip-rule="evenodd" d="M45.4843 101.434C45.262 101.434 45.0818 101.614 45.0818 101.836V102.642C45.0818 102.864 45.262 103.044 45.4843 103.044C45.7066 103.044 45.8868 102.864 45.8868 102.642V101.836C45.8868 101.614 45.7066 101.434 45.4843 101.434ZM25.761 102.642C25.761 102.419 25.9412 102.239 26.1635 102.239C26.3858 102.239 26.566 102.419 26.566 102.642V103.447C26.566 103.669 26.3858 103.849 26.1635 103.849C25.9412 103.849 25.761 103.669 25.761 103.447V102.642ZM28.1761 103.447C28.1761 103.224 28.3563 103.044 28.5786 103.044C28.8009 103.044 28.9811 103.224 28.9811 103.447V104.252C28.9811 104.474 28.8009 104.654 28.5786 104.654C28.3563 104.654 28.1761 104.474 28.1761 104.252V103.447ZM30.9937 103.608C30.7714 103.608 30.5912 103.788 30.5912 104.01V104.815C30.5912 105.037 30.7714 105.218 30.9937 105.218C31.216 105.218 31.3962 105.037 31.3962 104.815V104.01C31.3962 103.788 31.216 103.608 30.9937 103.608ZM33.0063 104.252C33.0063 104.029 33.1865 103.849 33.4088 103.849C33.6311 103.849 33.8113 104.029 33.8113 104.252V105.057C33.8113 105.279 33.6311 105.459 33.4088 105.459C33.1865 105.459 33.0063 105.279 33.0063 105.057V104.252ZM35.8239 103.849C35.6016 103.849 35.4214 104.029 35.4214 104.252V105.057C35.4214 105.279 35.6016 105.459 35.8239 105.459C36.0462 105.459 36.2264 105.279 36.2264 105.057V104.252C36.2264 104.029 36.0462 103.849 35.8239 103.849ZM37.8365 104.252C37.8365 104.029 38.0167 103.849 38.239 103.849C38.4613 103.849 38.6415 104.029 38.6415 104.252V105.057C38.6415 105.279 38.4613 105.459 38.239 105.459C38.0167 105.459 37.8365 105.279 37.8365 105.057V104.252ZM40.6541 103.447C40.4318 103.447 40.2516 103.627 40.2516 103.849V104.654C40.2516 104.876 40.4318 105.057 40.6541 105.057C40.8764 105.057 41.0566 104.876 41.0566 104.654V103.849C41.0566 103.627 40.8764 103.447 40.6541 103.447ZM42.6667 103.205C42.6667 102.983 42.8469 102.803 43.0692 102.803C43.2915 102.803 43.4717 102.983 43.4717 103.205V104.01C43.4717 104.232 43.2915 104.413 43.0692 104.413C42.8469 104.413 42.6667 104.232 42.6667 104.01V103.205Z" fill="#DAB638"/>
<path fill-rule="evenodd" clip-rule="evenodd" d="M35.4214 102.239C41.6459 102.239 46.6918 100.437 46.6918 98.2138L46.6918 95.7987H44.4386C42.3824 94.8211 39.1087 94.1887 35.4214 94.1887C31.7341 94.1887 28.4604 94.8211 26.4042 95.7987H24.1509V98.2138C24.1509 100.437 29.1969 102.239 35.4214 102.239Z" fill="#EDC63D"/>
<path d="M46.2893 95.7987C46.2893 96.1901 46.0684 96.6173 45.5464 97.058C45.0264 97.4971 44.25 97.9107 43.2554 98.2659C41.2697 98.9751 38.5 99.4214 35.4214 99.4214C32.3428 99.4214 29.5731 98.9751 27.5874 98.2659C26.5927 97.9107 25.8164 97.4971 25.2963 97.058C24.7744 96.6173 24.5535 96.1901 24.5535 95.7987C24.5535 95.4074 24.7744 94.9802 25.2963 94.5395C25.8164 94.1004 26.5927 93.6868 27.5874 93.3316C29.5731 92.6224 32.3428 92.1761 35.4214 92.1761C38.5 92.1761 41.2697 92.6224 43.2554 93.3316C44.25 93.6868 45.0264 94.1004 45.5464 94.5395C46.0684 94.9802 46.2893 95.4074 46.2893 95.7987Z" fill="#FDE284" stroke="#EDC63D" stroke-width="0.805031"/>
<path fill-rule="evenodd" clip-rule="evenodd" d="M45.4843 97.4088C45.262 97.4088 45.0818 97.589 45.0818 97.8113V98.6164C45.0818 98.8387 45.262 99.0189 45.4843 99.0189C45.7066 99.0189 45.8868 98.8387 45.8868 98.6164V97.8113C45.8868 97.589 45.7066 97.4088 45.4843 97.4088ZM25.761 98.6164C25.761 98.394 25.9412 98.2138 26.1635 98.2138C26.3858 98.2138 26.566 98.394 26.566 98.6164V99.4214C26.566 99.6437 26.3858 99.8239 26.1635 99.8239C25.9412 99.8239 25.761 99.6437 25.761 99.4214V98.6164ZM28.1761 99.4214C28.1761 99.1991 28.3563 99.0189 28.5786 99.0189C28.8009 99.0189 28.9811 99.1991 28.9811 99.4214V100.226C28.9811 100.449 28.8009 100.629 28.5786 100.629C28.3563 100.629 28.1761 100.449 28.1761 100.226V99.4214ZM30.9937 99.5824C30.7714 99.5824 30.5912 99.7626 30.5912 99.9849V100.79C30.5912 101.012 30.7714 101.192 30.9937 101.192C31.216 101.192 31.3962 101.012 31.3962 100.79V99.9849C31.3962 99.7626 31.216 99.5824 30.9937 99.5824ZM33.0063 100.226C33.0063 100.004 33.1865 99.8239 33.4088 99.8239C33.6311 99.8239 33.8113 100.004 33.8113 100.226V101.031C33.8113 101.254 33.6311 101.434 33.4088 101.434C33.1865 101.434 33.0063 101.254 33.0063 101.031V100.226ZM35.8239 99.8239C35.6016 99.8239 35.4214 100.004 35.4214 100.226V101.031C35.4214 101.254 35.6016 101.434 35.8239 101.434C36.0462 101.434 36.2264 101.254 36.2264 101.031V100.226C36.2264 100.004 36.0462 99.8239 35.8239 99.8239ZM37.8365 100.226C37.8365 100.004 38.0167 99.8239 38.239 99.8239C38.4613 99.8239 38.6415 100.004 38.6415 100.226V101.031C38.6415 101.254 38.4613 101.434 38.239 101.434C38.0167 101.434 37.8365 101.254 37.8365 101.031V100.226ZM40.6541 99.4214C40.4318 99.4214 40.2516 99.6016 40.2516 99.8239V100.629C40.2516 100.851 40.4318 101.031 40.6541 101.031C40.8764 101.031 41.0566 100.851 41.0566 100.629V99.8239C41.0566 99.6016 40.8764 99.4214 40.6541 99.4214ZM42.6667 99.1799C42.6667 98.9576 42.8469 98.7774 43.0692 98.7774C43.2915 98.7774 43.4717 98.9576 43.4717 99.1799V99.9849C43.4717 100.207 43.2915 100.387 43.0692 100.387C42.8469 100.387 42.6667 100.207 42.6667 99.9849V99.1799Z" fill="#DAB638"/>
<path fill-rule="evenodd" clip-rule="evenodd" d="M37.0315 97.4088C43.2559 97.4088 48.3019 95.6067 48.3019 93.3836V90.9686H46.0486C43.9924 89.9909 40.7187 89.3585 37.0315 89.3585C33.3442 89.3585 30.0705 89.9909 28.0143 90.9686H25.761V93.3836C25.761 95.6067 30.807 97.4088 37.0315 97.4088Z" fill="#EDC63D"/>
<path d="M47.8994 90.9686C47.8994 91.3599 47.6784 91.7871 47.1565 92.2278C46.6365 92.6669 45.8601 93.0805 44.8655 93.4357C42.8798 94.1449 40.1101 94.5912 37.0315 94.5912C33.9529 94.5912 31.1832 94.1449 29.1974 93.4357C28.2028 93.0805 27.4264 92.6669 26.9064 92.2278C26.3845 91.7871 26.1635 91.3599 26.1635 90.9686C26.1635 90.5772 26.3845 90.15 26.9064 89.7093C27.4264 89.2702 28.2028 88.8566 29.1974 88.5014C31.1831 87.7922 33.9529 87.3459 37.0315 87.3459C40.1101 87.3459 42.8798 87.7922 44.8655 88.5014C45.8601 88.8566 46.6365 89.2702 47.1565 89.7093C47.6784 90.15 47.8994 90.5772 47.8994 90.9686Z" fill="#FFE68F" stroke="#EDC63D" stroke-width="0.805031"/>
<path fill-rule="evenodd" clip-rule="evenodd" d="M47.0944 92.5786C46.8721 92.5786 46.6918 92.7588 46.6918 92.9811V93.7862C46.6918 94.0085 46.8721 94.1887 47.0944 94.1887C47.3167 94.1887 47.4969 94.0085 47.4969 93.7862V92.9811C47.4969 92.7588 47.3167 92.5786 47.0944 92.5786ZM27.3711 93.7862C27.3711 93.5639 27.5513 93.3836 27.7736 93.3836C27.9959 93.3836 28.1761 93.5639 28.1761 93.7862V94.5912C28.1761 94.8135 27.9959 94.9937 27.7736 94.9937C27.5513 94.9937 27.3711 94.8135 27.3711 94.5912V93.7862ZM29.7862 94.5912C29.7862 94.3689 29.9664 94.1887 30.1887 94.1887C30.411 94.1887 30.5912 94.3689 30.5912 94.5912V95.3962C30.5912 95.6185 30.411 95.7987 30.1887 95.7987C29.9664 95.7987 29.7862 95.6185 29.7862 95.3962V94.5912ZM32.6038 94.7522C32.3815 94.7522 32.2013 94.9324 32.2013 95.1547V95.9598C32.2013 96.1821 32.3815 96.3623 32.6038 96.3623C32.8261 96.3623 33.0063 96.1821 33.0063 95.9598V95.1547C33.0063 94.9324 32.8261 94.7522 32.6038 94.7522ZM34.6164 95.3962C34.6164 95.1739 34.7966 94.9937 35.0189 94.9937C35.2412 94.9937 35.4214 95.1739 35.4214 95.3962V96.2013C35.4214 96.4236 35.2412 96.6038 35.0189 96.6038C34.7966 96.6038 34.6164 96.4236 34.6164 96.2013V95.3962ZM37.434 94.9937C37.2117 94.9937 37.0315 95.1739 37.0315 95.3962V96.2013C37.0315 96.4236 37.2117 96.6038 37.434 96.6038C37.6563 96.6038 37.8365 96.4236 37.8365 96.2013V95.3962C37.8365 95.1739 37.6563 94.9937 37.434 94.9937ZM39.4466 95.3962C39.4466 95.1739 39.6268 94.9937 39.8491 94.9937C40.0714 94.9937 40.2516 95.1739 40.2516 95.3962V96.2013C40.2516 96.4236 40.0714 96.6038 39.8491 96.6038C39.6268 96.6038 39.4466 96.4236 39.4466 96.2013V95.3962ZM42.2642 94.5912C42.0419 94.5912 41.8617 94.7714 41.8617 94.9937V95.7987C41.8617 96.021 42.0419 96.2013 42.2642 96.2013C42.4865 96.2013 42.6667 96.021 42.6667 95.7987V94.9937C42.6667 94.7714 42.4865 94.5912 42.2642 94.5912ZM44.2768 94.3497C44.2768 94.1274 44.457 93.9472 44.6793 93.9472C44.9016 93.9472 45.0818 94.1274 45.0818 94.3497V95.1547C45.0818 95.377 44.9016 95.5572 44.6793 95.5572C44.457 95.5572 44.2768 95.377 44.2768 95.1547V94.3497Z" fill="#DAB638"/>
</svg>
