<svg width="128" height="36" viewBox="0 0 128 36" fill="none" xmlns="http://www.w3.org/2000/svg">
<rect width="128" height="36" rx="4" fill="#DB0A21"/>
<path d="M55.4443 21.708C55.0843 22.1774 54.5853 22.5329 53.9473 22.7744C53.3092 23.016 52.5846 23.1367 51.7734 23.1367C50.9395 23.1367 50.2012 22.9476 49.5586 22.5693C48.916 22.1911 48.4193 21.651 48.0684 20.9492C47.722 20.2428 47.542 19.4202 47.5283 18.4814V17.7021C47.5283 16.1982 47.8883 15.0247 48.6084 14.1816C49.3285 13.334 50.3333 12.9102 51.623 12.9102C52.7305 12.9102 53.61 13.1836 54.2617 13.7305C54.9134 14.2773 55.3053 15.0658 55.4375 16.0957H53.7422C53.5508 14.8971 52.8558 14.2979 51.6572 14.2979C50.8825 14.2979 50.2923 14.5781 49.8867 15.1387C49.4857 15.6947 49.2783 16.5127 49.2646 17.5928V18.3584C49.2646 19.4339 49.4902 20.2702 49.9414 20.8672C50.3971 21.4596 51.0283 21.7559 51.835 21.7559C52.7191 21.7559 53.348 21.5553 53.7217 21.1543V19.2061H51.6709V17.8936H55.4443V21.708ZM56.973 19.2334C56.973 18.5088 57.1166 17.8571 57.4037 17.2783C57.6908 16.695 58.0941 16.2484 58.6137 15.9385C59.1332 15.624 59.7302 15.4668 60.4047 15.4668C61.4027 15.4668 62.2117 15.7881 62.8314 16.4307C63.4558 17.0732 63.793 17.9255 63.8432 18.9873L63.85 19.377C63.85 20.1061 63.7087 20.7578 63.4262 21.332C63.1482 21.9062 62.7471 22.3506 62.223 22.665C61.7035 22.9795 61.102 23.1367 60.4184 23.1367C59.3747 23.1367 58.5385 22.7904 57.9096 22.0977C57.2852 21.4004 56.973 20.473 56.973 19.3154V19.2334ZM58.6342 19.377C58.6342 20.138 58.7914 20.735 59.1059 21.168C59.4203 21.5964 59.8578 21.8105 60.4184 21.8105C60.9789 21.8105 61.4141 21.5918 61.724 21.1543C62.0385 20.7168 62.1957 20.0765 62.1957 19.2334C62.1957 18.486 62.0339 17.8936 61.7104 17.4561C61.3913 17.0186 60.9561 16.7998 60.4047 16.7998C59.8624 16.7998 59.4317 17.0163 59.1127 17.4492C58.7937 17.8776 58.6342 18.5202 58.6342 19.377ZM67.4363 13.8057V15.6035H68.742V16.834H67.4363V20.9629C67.4363 21.2454 67.491 21.4505 67.6004 21.5781C67.7143 21.7012 67.9148 21.7627 68.202 21.7627C68.3934 21.7627 68.587 21.7399 68.783 21.6943V22.9795C68.4048 23.0843 68.0402 23.1367 67.6893 23.1367C66.4132 23.1367 65.7752 22.4326 65.7752 21.0244V16.834H64.5584V15.6035H65.7752V13.8057H67.4363ZM75.4703 23H73.8092V15.6035H75.4703V23ZM73.7066 13.6826C73.7066 13.4274 73.7864 13.2155 73.9459 13.0469C74.11 12.8783 74.3424 12.7939 74.6432 12.7939C74.9439 12.7939 75.1764 12.8783 75.3404 13.0469C75.5045 13.2155 75.5865 13.4274 75.5865 13.6826C75.5865 13.9333 75.5045 14.1429 75.3404 14.3115C75.1764 14.4756 74.9439 14.5576 74.6432 14.5576C74.3424 14.5576 74.11 14.4756 73.9459 14.3115C73.7864 14.1429 73.7066 13.9333 73.7066 13.6826ZM79.4668 13.8057V15.6035H80.7725V16.834H79.4668V20.9629C79.4668 21.2454 79.5215 21.4505 79.6309 21.5781C79.7448 21.7012 79.9453 21.7627 80.2324 21.7627C80.4238 21.7627 80.6175 21.7399 80.8135 21.6943V22.9795C80.4352 23.0843 80.0706 23.1367 79.7197 23.1367C78.4437 23.1367 77.8057 22.4326 77.8057 21.0244V16.834H76.5889V15.6035H77.8057V13.8057H79.4668Z" fill="white"/>
</svg>
